<svg xmlns="http://www.w3.org/2000/svg" viewBox="0 0 1200 620" fill="none" aria-hidden="true">
  <g fill="#1A1A2E">
    <circle cx="180" cy="140" r="2.2"/><circle cx="195" cy="132" r="2"/><circle cx="210" cy="128" r="2.2"/>
    <circle cx="225" cy="135" r="2"/><circle cx="240" cy="145" r="2.2"/><circle cx="255" cy="155" r="2"/>
    <circle cx="165" cy="155" r="2"/><circle cx="175" cy="168" r="2.2"/><circle cx="190" cy="175" r="2"/>
    <circle cx="205" cy="182" r="2.2"/><circle cx="220" cy="188" r="2"/><circle cx="235" cy="195" r="2.2"/>
    <circle cx="250" cy="200" r="2"/><circle cx="265" cy="205" r="2.2"/><circle cx="280" cy="210" r="2"/>
    <circle cx="150" cy="190" r="2"/><circle cx="160" cy="205" r="2.2"/><circle cx="175" cy="215" r="2"/>
    <circle cx="190" cy="225" r="2.2"/><circle cx="205" cy="235" r="2"/><circle cx="220" cy="245" r="2.2"/>
    <circle cx="235" cy="255" r="2"/><circle cx="250" cy="265" r="2.2"/><circle cx="265" cy="275" r="2"/>
    <circle cx="280" cy="285" r="2.2"/><circle cx="295" cy="295" r="2"/><circle cx="310" cy="305" r="2.2"/>
    <circle cx="325" cy="315" r="2"/><circle cx="340" cy="325" r="2.2"/><circle cx="355" cy="335" r="2"/>
    <circle cx="520" cy="120" r="2.2"/><circle cx="535" cy="115" r="2"/><circle cx="550" cy="112" r="2.2"/>
    <circle cx="565" cy="118" r="2"/><circle cx="580" cy="125" r="2.2"/><circle cx="595" cy="132" r="2"/>
    <circle cx="610" cy="140" r="2.2"/><circle cx="625" cy="148" r="2"/><circle cx="640" cy="155" r="2.2"/>
    <circle cx="655" cy="162" r="2"/><circle cx="670" cy="170" r="2.2"/><circle cx="685" cy="178" r="2"/>
    <circle cx="700" cy="185" r="2.2"/><circle cx="715" cy="192" r="2"/><circle cx="730" cy="200" r="2.2"/>
    <circle cx="745" cy="208" r="2"/><circle cx="760" cy="215" r="2.2"/><circle cx="775" cy="222" r="2"/>
    <circle cx="790" cy="230" r="2.2"/><circle cx="805" cy="238" r="2"/><circle cx="820" cy="245" r="2.2"/>
    <circle cx="835" cy="252" r="2"/><circle cx="850" cy="260" r="2.2"/><circle cx="865" cy="268" r="2"/>
    <circle cx="880" cy="275" r="2.2"/><circle cx="895" cy="282" r="2"/><circle cx="910" cy="290" r="2.2"/>
    <circle cx="925" cy="298" r="2"/><circle cx="940" cy="305" r="2.2"/><circle cx="955" cy="312" r="2"/>
    <circle cx="970" cy="320" r="2.2"/><circle cx="985" cy="328" r="2"/><circle cx="1000" cy="335" r="2.2"/>
    <circle cx="540" cy="200" r="2"/><circle cx="555" cy="210" r="2.2"/><circle cx="570" cy="220" r="2"/>
    <circle cx="585" cy="230" r="2.2"/><circle cx="600" cy="240" r="2"/><circle cx="615" cy="250" r="2.2"/>
    <circle cx="630" cy="260" r="2"/><circle cx="645" cy="270" r="2.2"/><circle cx="660" cy="280" r="2"/>
    <circle cx="675" cy="290" r="2.2"/><circle cx="690" cy="300" r="2"/><circle cx="705" cy="310" r="2.2"/>
    <circle cx="720" cy="320" r="2"/><circle cx="735" cy="330" r="2.2"/><circle cx="750" cy="340" r="2"/>
    <circle cx="480" cy="280" r="2.2"/><circle cx="495" cy="290" r="2"/><circle cx="510" cy="300" r="2.2"/>
    <circle cx="525" cy="310" r="2"/><circle cx="540" cy="320" r="2.2"/><circle cx="555" cy="330" r="2"/>
    <circle cx="570" cy="340" r="2.2"/><circle cx="585" cy="350" r="2"/><circle cx="600" cy="360" r="2.2"/>
    <circle cx="615" cy="370" r="2"/><circle cx="630" cy="380" r="2.2"/><circle cx="645" cy="390" r="2"/>
    <circle cx="660" cy="400" r="2.2"/><circle cx="675" cy="410" r="2"/><circle cx="690" cy="420" r="2.2"/>
    <circle cx="705" cy="430" r="2"/><circle cx="720" cy="440" r="2.2"/><circle cx="735" cy="450" r="2"/>
    <circle cx="750" cy="460" r="2.2"/><circle cx="765" cy="470" r="2"/><circle cx="780" cy="480" r="2.2"/>
    <circle cx="920" cy="140" r="2"/><circle cx="935" cy="148" r="2.2"/><circle cx="950" cy="155" r="2"/>
    <circle cx="965" cy="162" r="2.2"/><circle cx="980" cy="170" r="2"/><circle cx="995" cy="178" r="2.2"/>
    <circle cx="1010" cy="185" r="2"/><circle cx="1025" cy="192" r="2.2"/><circle cx="1040" cy="200" r="2"/>
    <circle cx="1055" cy="208" r="2.2"/><circle cx="1070" cy="215" r="2"/><circle cx="1085" cy="222" r="2.2"/>
    <circle cx="300" cy="380" r="2"/><circle cx="315" cy="390" r="2.2"/><circle cx="330" cy="400" r="2"/>
    <circle cx="345" cy="410" r="2.2"/><circle cx="360" cy="420" r="2"/><circle cx="375" cy="430" r="2.2"/>
    <circle cx="390" cy="440" r="2"/><circle cx="405" cy="450" r="2.2"/><circle cx="420" cy="460" r="2"/>
    <circle cx="435" cy="470" r="2.2"/><circle cx="450" cy="480" r="2"/><circle cx="465" cy="490" r="2.2"/>
    <circle cx="480" cy="500" r="2"/><circle cx="495" cy="510" r="2.2"/><circle cx="510" cy="520" r="2"/>
    <circle cx="100" cy="320" r="2.2"/><circle cx="115" cy="330" r="2"/><circle cx="130" cy="340" r="2.2"/>
    <circle cx="145" cy="350" r="2"/><circle cx="160" cy="360" r="2.2"/><circle cx="175" cy="370" r="2"/>
    <circle cx="190" cy="380" r="2.2"/><circle cx="205" cy="390" r="2"/><circle cx="220" cy="400" r="2.2"/>
    <circle cx="235" cy="410" r="2"/><circle cx="250" cy="420" r="2.2"/><circle cx="265" cy="430" r="2"/>
    <circle cx="280" cy="440" r="2.2"/><circle cx="295" cy="450" r="2"/><circle cx="310" cy="460" r="2.2"/>
    <circle cx="325" cy="470" r="2"/><circle cx="340" cy="480" r="2.2"/><circle cx="355" cy="490" r="2"/>
    <circle cx="820" cy="380" r="2.2"/><circle cx="835" cy="390" r="2"/><circle cx="850" cy="400" r="2.2"/>
    <circle cx="865" cy="410" r="2"/><circle cx="880" cy="420" r="2.2"/><circle cx="895" cy="430" r="2"/>
    <circle cx="910" cy="440" r="2.2"/><circle cx="925" cy="450" r="2"/><circle cx="940" cy="460" r="2.2"/>
    <circle cx="955" cy="470" r="2"/><circle cx="970" cy="480" r="2.2"/><circle cx="985" cy="490" r="2"/>
    <circle cx="1000" cy="500" r="2.2"/><circle cx="1015" cy="510" r="2"/><circle cx="1030" cy="520" r="2.2"/>
    <circle cx="560" cy="90" r="2"/><circle cx="575" cy="95" r="2.2"/><circle cx="590" cy="100" r="2"/>
    <circle cx="605" cy="105" r="2.2"/><circle cx="620" cy="110" r="2"/><circle cx="635" cy="115" r="2.2"/>
    <circle cx="200" cy="100" r="2"/><circle cx="215" cy="108" r="2.2"/><circle cx="230" cy="115" r="2"/>
    <circle cx="245" cy="122" r="2.2"/><circle cx="260" cy="130" r="2"/><circle cx="275" cy="138" r="2.2"/>
    <circle cx="290" cy="145" r="2"/><circle cx="305" cy="152" r="2.2"/><circle cx="320" cy="160" r="2"/>
    <circle cx="335" cy="168" r="2.2"/><circle cx="350" cy="175" r="2"/><circle cx="365" cy="182" r="2.2"/>
    <circle cx="380" cy="190" r="2"/><circle cx="395" cy="198" r="2.2"/><circle cx="410" cy="205" r="2"/>
    <circle cx="425" cy="212" r="2.2"/><circle cx="440" cy="220" r="2"/><circle cx="455" cy="228" r="2.2"/>
    <circle cx="470" cy="235" r="2"/><circle cx="485" cy="242" r="2.2"/><circle cx="500" cy="250" r="2"/>
    <circle cx="515" cy="258" r="2.2"/><circle cx="530" cy="265" r="2"/><circle cx="545" cy="272" r="2.2"/>
    <circle cx="560" cy="280" r="2"/><circle cx="575" cy="288" r="2.2"/><circle cx="590" cy="295" r="2"/>
    <circle cx="605" cy="302" r="2.2"/><circle cx="620" cy="310" r="2"/><circle cx="635" cy="318" r="2.2"/>
    <circle cx="650" cy="325" r="2"/><circle cx="665" cy="332" r="2.2"/><circle cx="680" cy="340" r="2"/>
    <circle cx="695" cy="348" r="2.2"/><circle cx="710" cy="355" r="2"/><circle cx="725" cy="362" r="2.2"/>
    <circle cx="740" cy="370" r="2"/><circle cx="755" cy="378" r="2.2"/><circle cx="770" cy="385" r="2"/>
    <circle cx="785" cy="392" r="2.2"/><circle cx="800" cy="400" r="2"/><circle cx="815" cy="408" r="2.2"/>
    <circle cx="830" cy="415" r="2"/><circle cx="845" cy="422" r="2.2"/><circle cx="860" cy="430" r="2"/>
    <circle cx="875" cy="438" r="2.2"/><circle cx="890" cy="445" r="2"/><circle cx="905" cy="452" r="2.2"/>
    <circle cx="920" cy="460" r="2"/><circle cx="935" cy="468" r="2.2"/><circle cx="950" cy="475" r="2"/>
    <circle cx="965" cy="482" r="2.2"/><circle cx="980" cy="490" r="2"/><circle cx="995" cy="498" r="2.2"/>
    <circle cx="1010" cy="505" r="2"/><circle cx="1025" cy="512" r="2.2"/><circle cx="1040" cy="520" r="2"/>
    <circle cx="1055" cy="528" r="2.2"/><circle cx="1070" cy="535" r="2"/><circle cx="1085" cy="542" r="2.2"/>
    <circle cx="1100" cy="550" r="2"/><circle cx="1115" cy="558" r="2.2"/><circle cx="1130" cy="565" r="2"/>
  </g>
</svg>
